<svg width="1196" height="358" viewBox="0 0 1196 358" fill="none" xmlns="http://www.w3.org/2000/svg">
<rect width="1196" height="358" rx="25" fill="#2D2D2D"/>
<g opacity="0.3">
<path d="M93.5201 0C93.9652 1.80453 94.4998 3.6061 95.1218 5.40129C102.378 26.3456 121.597 46.5642 149.99 60.3437C206.709 87.8701 299.781 89.5173 404.962 19.7583C414.99 13.1074 425.057 6.51043 435.132 0H440.704C429.349 7.31067 417.994 14.7399 406.683 22.2414C300.775 92.4824 206.525 91.1296 148.627 63.0311C119.712 48.9982 99.7992 28.2481 92.2174 6.36427C91.485 4.25033 90.8683 2.12715 90.3699 0H93.5201Z" fill="#FAF8ED" fill-opacity="0.46"/>
<path d="M113.977 358C111.024 342.468 105.789 326.248 98.4503 309.594C79.0664 265.607 45.0664 218.752 0 173.852V169.58C46.3665 215.35 81.3915 263.305 101.266 308.406C108.761 325.413 114.111 342.036 117.095 358H113.977Z" fill="#FAF8ED" fill-opacity="0.46"/>
<path d="M514.347 358C504.314 280.972 463.463 221.854 407.248 183.67C342.192 139.481 256.503 123.297 174.088 139.969C153.456 144.143 140.004 149.55 132.294 156.002C128.466 159.206 126.086 162.641 124.912 166.294C123.738 169.948 123.734 173.931 124.841 178.286C127.073 187.061 133.77 197.167 144.042 208.605C154.283 220.01 167.936 232.588 183.864 246.312C196.431 257.141 210.407 268.673 225.206 280.884C253.431 304.174 284.65 329.936 314.809 358H310.356C281.077 330.922 250.862 305.988 223.393 283.318C208.545 271.065 194.499 259.473 181.837 248.563C165.884 234.818 152.112 222.138 141.738 210.585C131.392 199.064 124.282 188.51 121.866 179.011C120.649 174.229 120.611 169.672 121.987 165.394C123.363 161.114 126.117 157.224 130.301 153.723C138.616 146.763 152.7 141.232 173.467 137.031C256.653 120.203 343.208 136.519 408.997 181.205C466.005 219.928 507.379 279.931 517.438 358H514.347Z" fill="#FAF8ED" fill-opacity="0.46"/>
<path d="M994.071 358C998 355.416 1002.15 352.717 1006.5 349.887C1010.61 347.216 1014.89 344.429 1019.34 341.512C1041.49 326.983 1067.78 309.17 1096.39 286.338C1124.86 263.607 1138.43 241.309 1141.81 221.572C1145.19 201.872 1138.46 184.506 1125.87 171.467C1100.61 145.298 1051.84 136.672 1014.41 162.23C975.889 188.533 912.018 195.981 862.984 170.006C861.046 168.98 859.132 167.901 857.243 166.77C831.065 241.972 785.85 308.118 736.875 358H732.612C782.302 307.959 828.251 241.151 854.575 165.124C833.698 151.883 816.211 131.939 805.6 104.078C795.326 77.105 791.52 42.775 797.236 0H800.329C794.587 42.5866 798.382 76.5341 808.473 103.031C818.737 129.978 835.537 149.285 855.582 162.185C872.765 111.423 881.163 56.6194 876.092 0H879.174C884.263 57.2461 875.692 112.616 858.248 163.851C860.283 165.087 862.35 166.259 864.444 167.368C912.393 192.768 975.022 185.466 1012.66 159.77C1051.38 133.328 1101.84 142.201 1128.1 169.407C1141.28 183.056 1148.39 201.346 1144.84 222.068C1141.29 242.753 1127.16 265.643 1098.32 288.662C1069.61 311.58 1043.23 329.454 1021.05 344.004C1016.55 346.949 1012.24 349.756 1008.12 352.438C1005.17 354.353 1002.33 356.206 999.581 358H994.071Z" fill="#FAF8ED" fill-opacity="0.46"/>
<path d="M1007.31 0C1022.09 7.4466 1034.69 11.8844 1045.63 14.6004C1060.06 18.1798 1071.58 18.7775 1081.66 19.3001L1081.66 19.3001C1085.18 19.4825 1088.52 19.6558 1091.74 19.9434C1097.95 20.4969 1103.72 21.4819 1109.33 23.8436C1114.95 26.211 1120.34 29.9266 1125.86 35.8393C1136.86 47.6063 1148.48 68.1696 1163.69 104.43C1174.31 129.771 1185.35 150.661 1196 168.372V174.23C1184.47 155.487 1172.4 133.113 1160.85 105.569C1145.65 69.33 1134.2 49.2059 1123.6 37.8634C1118.33 32.2214 1113.29 28.7768 1108.11 26.5993C1102.93 24.416 1097.53 23.4714 1091.47 22.931C1088.4 22.6577 1085.16 22.4899 1081.71 22.3111C1071.58 21.7864 1059.62 21.1671 1044.88 17.5083C1032.42 14.418 1017.96 9.1656 1000.76 0H1007.31Z" fill="#FAF8ED" fill-opacity="0.46"/>
</g>
</svg>
