<svg width="15" height="20" viewBox="0 0 15 20" fill="none" xmlns="http://www.w3.org/2000/svg">
<path d="M15 7C15 6.08075 14.806 5.1705 14.4291 4.32122C14.0522 3.47194 13.4997 2.70026 12.8033 2.05025C12.1069 1.40024 11.2801 0.884626 10.3701 0.532843C9.46018 0.18106 8.48491 0 7.5 0C6.51509 0 5.53982 0.18106 4.62987 0.532843C3.71993 0.884626 2.89314 1.40024 2.1967 2.05025C1.50026 2.70026 0.947814 3.47194 0.570903 4.32122C0.193993 5.1705 -1.46764e-08 6.08075 0 7C0 8.387 0.439286 9.677 1.18393 10.765H1.17536C3.70393 14.46 7.5 20 7.5 20L13.8246 10.765H13.8171C14.589 9.64137 14.9995 8.33474 15 7ZM7.5 10C6.64752 10 5.82995 9.68393 5.22716 9.12132C4.62436 8.55871 4.28571 7.79565 4.28571 7C4.28571 6.20435 4.62436 5.44129 5.22716 4.87868C5.82995 4.31607 6.64752 4 7.5 4C8.35248 4 9.17005 4.31607 9.77284 4.87868C10.3756 5.44129 10.7143 6.20435 10.7143 7C10.7143 7.79565 10.3756 8.55871 9.77284 9.12132C9.17005 9.68393 8.35248 10 7.5 10Z" fill="#DA4852"/>
</svg>
